<svg width="358" height="358" viewBox="0 0 358 358" fill="none" xmlns="http://www.w3.org/2000/svg">
<g clip-path="url(#clip0_18_17)">
<path d="M30.1133 213.816L87.3254 56.6269C95.731 33.5328 121.09 21.7077 144.184 30.1133L301.373 87.3254C324.467 95.731 336.292 121.09 327.887 144.184L270.675 301.373C262.269 324.467 236.91 336.292 213.816 327.887L56.6269 270.675C33.5328 262.269 21.7077 236.91 30.1133 213.816Z" fill="black"/>
<path d="M45.9402 125.677L174.402 35.727C193.275 22.5116 219.108 27.0667 232.323 45.9402L322.273 174.402C335.488 193.275 330.933 219.108 312.06 232.324L183.599 322.273C164.725 335.488 138.892 330.933 125.677 312.06L35.727 183.599C22.5116 164.725 27.0667 138.892 45.9402 125.677Z" fill="#FFC700"/>
<path d="M143.263 47.764L136.71 52.3527L283.546 262.056L290.099 257.467L143.263 47.764Z" fill="black"/>
<path d="M75.2736 95.3709L68.7204 99.9595L215.556 309.662L222.109 305.074L75.2736 95.3709Z" fill="black"/>
<path d="M305.074 135.891L95.3709 282.727L99.9595 289.28L309.662 142.444L305.074 135.891Z" fill="black"/>
<path d="M257.467 67.9013L47.764 214.737L52.3527 221.29L262.056 74.4545L257.467 67.9013Z" fill="black"/>
<path d="M161.916 153.729C158.688 155.989 155.938 158.862 153.821 162.185C151.704 165.507 150.263 169.214 149.579 173.094C148.894 176.974 148.981 180.951 149.834 184.797C150.687 188.643 152.289 192.284 154.548 195.511C156.808 198.738 159.681 201.489 163.004 203.605C166.326 205.722 170.034 207.164 173.913 207.848C177.793 208.532 181.77 208.445 185.616 207.593C189.462 206.74 193.103 205.138 196.33 202.878C202.848 198.315 207.285 191.349 208.667 183.513C210.049 175.677 208.261 167.614 203.697 161.096C199.134 154.579 192.168 150.141 184.332 148.759C176.497 147.378 168.433 149.165 161.916 153.729ZM166.504 160.282C168.871 158.625 171.541 157.45 174.361 156.825C177.182 156.2 180.098 156.136 182.943 156.638C185.788 157.14 188.507 158.197 190.943 159.749C193.38 161.301 195.487 163.318 197.144 165.685C200.491 170.465 201.802 176.378 200.789 182.124C199.775 187.87 196.521 192.978 191.741 196.325C186.962 199.672 181.049 200.983 175.303 199.969C169.556 198.956 164.448 195.702 161.101 190.922C159.444 188.556 158.27 185.886 157.644 183.065C157.019 180.245 156.955 177.329 157.457 174.483C157.959 171.638 159.016 168.92 160.568 166.483C162.12 164.046 164.137 161.939 166.504 160.282Z" fill="#B90202"/>
<path d="M182.298 38.1326C179.071 40.3923 176.321 43.2655 174.204 46.5882C172.087 49.9109 170.645 53.6179 169.961 57.4977C169.277 61.3775 169.364 65.3541 170.217 69.2004C171.069 73.0467 172.671 76.6873 174.931 79.9145C177.191 83.1416 180.064 85.8921 183.387 88.0089C186.709 90.1257 190.416 91.5673 194.296 92.2514C198.176 92.9356 202.153 92.8488 205.999 91.9961C209.845 91.1434 213.486 89.5414 216.713 87.2817C219.94 85.022 222.691 82.1488 224.807 78.8262C226.924 75.5035 228.366 71.7964 229.05 67.9166C229.734 64.0368 229.647 60.0603 228.794 56.214C227.942 52.3677 226.34 48.7271 224.08 45.4999C221.82 42.2727 218.947 39.5222 215.625 37.4055C212.302 35.2887 208.595 33.8471 204.715 33.1629C200.835 32.4788 196.859 32.5656 193.012 33.4183C189.166 34.271 185.525 35.8729 182.298 38.1326ZM186.887 44.6859C191.666 41.3392 197.58 40.0283 203.326 41.0414C209.072 42.0546 214.18 45.3089 217.527 50.0885C220.874 54.868 222.185 60.7813 221.171 66.5274C220.158 72.2736 216.904 77.3818 212.124 80.7285C207.345 84.0752 201.431 85.3861 195.685 84.3729C189.939 83.3597 184.831 80.1054 181.484 75.3258C178.138 70.5463 176.827 64.6331 177.84 58.887C178.853 53.1408 182.107 48.0326 186.887 44.6859Z" fill="#B90202"/>
<path d="M95.5164 98.8981L93.7829 108.729L167.516 121.73L169.249 111.899L95.5164 98.8981Z" fill="white"/>
<path d="M142.932 74.3145L133.101 72.5811L120.1 146.314L129.931 148.047L142.932 74.3145Z" fill="white"/>
<path d="M75.1336 214.495L73.4001 224.326L147.133 237.327L148.866 227.496L75.1336 214.495Z" fill="white"/>
<path d="M122.549 189.911L112.718 188.177L99.7172 261.91L109.548 263.644L122.549 189.911Z" fill="white"/>
<path d="M190.73 234.877L188.997 244.708L262.729 257.709L264.463 247.878L190.73 234.877Z" fill="white"/>
<path d="M238.146 210.294L228.315 208.56L215.314 282.293L225.145 284.026L238.146 210.294Z" fill="white"/>
</g>
<defs>
<clipPath id="clip0_18_17">
<rect width="256" height="256" fill="white" transform="translate(0.730743 147.566) rotate(-35)"/>
</clipPath>
</defs>
</svg>
