<svg width="341" height="341" viewBox="0 0 341 341" fill="none" xmlns="http://www.w3.org/2000/svg">
<path d="M40.9538 90.191L192.558 19.4967C214.832 9.1103 241.125 18.6802 251.511 40.9538L322.206 192.558C332.592 214.832 323.022 241.125 300.749 251.511L149.144 322.206C126.87 332.592 100.577 323.022 90.1911 300.749L19.4967 149.144C9.1103 126.87 18.6802 100.577 40.9538 90.191Z" fill="#070303"/>
<path d="M49.0724 95.2323L191.202 28.9563C212.083 19.2191 236.733 28.1908 246.47 49.0724L312.746 191.202C322.483 212.083 313.512 236.733 292.63 246.47L150.501 312.746C129.619 322.483 104.97 313.512 95.2323 292.63L28.9563 150.501C19.2191 129.619 28.1909 104.97 49.0724 95.2323Z" fill="#2C8716"/>
<path d="M158.446 35.4034L151.196 38.7844L259.386 270.799L266.637 267.418L158.446 35.4034Z" fill="#070303"/>
<path d="M83.2227 70.4807L75.9723 73.8617L184.163 305.876L191.413 302.495L83.2227 70.4807Z" fill="#070303"/>
<path d="M302.496 150.29L70.4807 258.48L73.8617 265.73L305.876 157.54L302.496 150.29Z" fill="#070303"/>
<path d="M267.418 75.066L35.4034 183.256L38.7844 190.507L270.799 82.3164L267.418 75.066Z" fill="#070303"/>
<path d="M158.415 142.998C154.844 144.663 151.636 147.014 148.975 149.919C146.313 152.824 144.25 156.224 142.902 159.926C141.555 163.628 140.95 167.559 141.122 171.495C141.293 175.431 142.239 179.295 143.904 182.865C145.569 186.436 147.921 189.644 150.825 192.305C153.73 194.967 157.13 197.03 160.832 198.378C164.535 199.725 168.466 200.33 172.402 200.158C176.338 199.986 180.201 199.041 183.772 197.376C190.983 194.013 196.563 187.924 199.284 180.447C202.005 172.971 201.645 164.719 198.282 157.508C194.92 150.297 188.83 144.717 181.354 141.996C173.877 139.275 165.626 139.635 158.415 142.998ZM161.795 150.248C164.414 149.027 167.247 148.334 170.133 148.208C173.02 148.082 175.903 148.525 178.618 149.514C181.332 150.502 183.826 152.015 185.956 153.967C188.086 155.918 189.811 158.271 191.032 160.889C193.498 166.177 193.762 172.228 191.766 177.711C189.771 183.194 185.679 187.66 180.391 190.125C175.103 192.591 169.052 192.856 163.569 190.86C158.086 188.864 153.62 184.772 151.154 179.484C149.933 176.866 149.24 174.033 149.114 171.146C148.988 168.26 149.432 165.377 150.42 162.662C151.408 159.947 152.921 157.454 154.873 155.324C156.825 153.194 159.177 151.469 161.795 150.248Z" fill="#F71010"/>
<path d="M198.561 32.6967C194.99 34.3617 191.783 36.7136 189.121 39.6183C186.459 42.5229 184.396 45.9233 183.049 49.6253C181.701 53.3274 181.096 57.2586 181.268 61.1946C181.44 65.1305 182.385 68.9939 184.05 72.5645C185.715 76.135 188.067 79.3427 190.972 82.0043C193.876 84.6658 197.277 86.7293 200.979 88.0767C204.681 89.4242 208.612 90.0292 212.548 89.8574C216.484 89.6855 220.347 88.7401 223.918 87.0752C227.488 85.4102 230.696 83.0583 233.358 80.1536C236.019 77.249 238.083 73.8486 239.43 70.1466C240.778 66.4445 241.383 62.5133 241.211 58.5773C241.039 54.6414 240.094 50.7779 238.429 47.2074C236.764 43.6368 234.412 40.4292 231.507 37.7676C228.602 35.1061 225.202 33.0426 221.5 31.6952C217.798 30.3477 213.867 29.7427 209.931 29.9145C205.995 30.0864 202.131 31.0317 198.561 32.6967ZM201.942 39.9472C207.23 37.4813 213.281 37.2171 218.764 39.2127C224.247 41.2083 228.712 45.3002 231.178 50.5883C233.644 55.8764 233.908 61.9275 231.913 67.4104C229.917 72.8932 225.825 77.3588 220.537 79.8247C215.249 82.2906 209.198 82.5548 203.715 80.5592C198.232 78.5636 193.766 74.4716 191.301 69.1835C188.835 63.8954 188.57 57.8444 190.566 52.3615C192.562 46.8786 196.654 42.4131 201.942 39.9472Z" fill="#F71010"/>
<path d="M102.545 77.4694L99.1312 86.8501L169.486 112.457L172.9 103.077L102.545 77.4694Z" fill="#070303"/>
<path d="M153.51 61.493L144.129 58.0787L118.522 128.434L127.903 131.848L153.51 61.493Z" fill="#070303"/>
<path d="M62.3993 187.77L58.985 197.151L129.34 222.758L132.754 213.377L62.3993 187.77Z" fill="#070303"/>
<path d="M113.363 171.794L103.983 168.38L78.3757 238.734L87.7564 242.149L113.363 171.794Z" fill="#070303"/>
<path d="M172.7 227.916L169.286 237.297L239.641 262.904L243.055 253.523L172.7 227.916Z" fill="#070303"/>
<path d="M223.664 211.94L214.284 208.526L188.677 278.881L198.057 282.295L223.664 211.94Z" fill="#070303"/>
</svg>
